<?xml version="1.0" encoding="UTF-8" standalone="no"?><!-- Generator: Gravit.io --><svg xmlns="http://www.w3.org/2000/svg" xmlns:xlink="http://www.w3.org/1999/xlink" style="isolation:isolate" viewBox="0 0 42.52 42.52" width="42.52pt" height="42.52pt"><defs><clipPath id="_clipPath_3jNDrcWFT8I3Hcj8FGlWSKiGap0OYP90"><rect width="42.52" height="42.52"/></clipPath></defs><g clip-path="url(#_clipPath_3jNDrcWFT8I3Hcj8FGlWSKiGap0OYP90)"><g><g><g><path d=" M 2.76 1 L 2.76 25.804 L 2.76 41 L 39.76 41 L 39.76 25.804 L 39.76 1 L 2.76 1 Z  M 4.83 2.959 L 37.69 2.959 L 37.69 6.484 L 4.83 6.484 L 4.83 2.959 Z  M 4.83 7.66 L 37.69 7.66 L 37.69 10.685 L 4.83 10.685 L 4.83 7.66 Z  M 4.83 11.858 L 37.69 11.858 L 37.69 14.886 L 4.83 14.886 L 4.83 11.858 Z  M 4.83 16.061 L 37.69 16.061 L 37.69 19.092 L 4.83 19.092 L 4.83 16.061 Z  M 4.83 20.265 L 37.69 20.265 L 37.69 23.842 L 4.83 23.842 L 4.83 20.265 Z  M 4.83 25.804 L 20.929 25.804 L 20.929 39.041 L 4.83 39.041 L 4.83 25.804 Z  M 37.69 39.038 L 22.171 39.038 L 22.171 25.801 L 37.69 25.801 L 37.69 39.038 Z " fill="rgb(255,255,255)"/></g></g></g></g></svg>