<?xml version="1.0" encoding="UTF-8" standalone="no"?><!-- Generator: Gravit.io --><svg xmlns="http://www.w3.org/2000/svg" xmlns:xlink="http://www.w3.org/1999/xlink" style="isolation:isolate" viewBox="0 0 42.52 42.52" width="42.52pt" height="42.52pt"><defs><clipPath id="_clipPath_VKDF7V759eRUSWN0TVLcyPcfyj635mef"><rect width="42.52" height="42.52"/></clipPath></defs><g clip-path="url(#_clipPath_VKDF7V759eRUSWN0TVLcyPcfyj635mef)"><g><g><g><g><path d=" M 27.026 12.027 C 25.829 12.236 17.604 12.236 16.404 12.027 C 15.995 11.815 15.373 12.129 15.373 12.613 C 15.373 13.365 16.087 13.395 17.814 13.452 C 18.021 13.462 18.253 13.469 18.486 13.472 C 18.464 13.536 18.448 13.597 18.448 13.667 L 18.448 15.237 C 18.448 15.583 18.725 15.863 19.064 15.863 C 19.408 15.863 19.684 15.583 19.684 15.237 L 19.684 13.667 C 19.684 13.607 19.666 13.553 19.652 13.498 C 20.309 13.509 21.018 13.512 21.721 13.512 C 22.519 13.512 23.216 13.509 23.827 13.502 C 23.813 13.555 23.795 13.607 23.795 13.667 L 23.795 15.237 C 23.795 15.583 24.072 15.863 24.418 15.863 C 24.757 15.863 25.035 15.583 25.035 15.237 L 25.035 13.667 C 25.035 13.6 25.017 13.543 24.999 13.486 C 28.043 13.412 28.057 13.183 28.057 12.613 C 28.057 12.127 27.437 11.815 27.026 12.027 Z " fill="rgb(255,255,255)"/></g><g><path d=" M 17.846 34.486 C 9.922 32.8 4 25.985 4 17.867 C 4 8.433 11.987 0.76 21.793 0.76 L 23.179 0.76 L 23.179 6.21 L 23.261 6.243 C 25.599 6.901 27.365 8.99 27.365 11.449 C 27.365 11.76 16.071 11.76 16.071 11.449 C 16.071 8.893 17.925 6.77 20.407 6.203 L 20.407 3.478 C 12.776 4.156 6.765 10.349 6.765 17.868 C 6.765 24.518 11.465 30.131 17.846 31.786 L 17.846 34.486 L 17.846 34.486 Z " fill="rgb(255,255,255)"/><path d=" M 38.67 23.268 C 39.262 21.571 39.582 19.754 39.582 17.867 C 39.582 12.175 36.653 6.879 31.742 3.687 C 31.108 3.276 30.247 3.435 29.818 4.044 C 29.396 4.651 29.56 5.477 30.191 5.886 C 34.345 8.581 36.819 13.064 36.819 17.868 C 36.819 19.33 36.592 20.741 36.184 22.078 L 38.67 23.268 L 38.67 23.268 Z " fill="rgb(255,255,255)"/></g></g><g><path d=" M 29.47 41.76 C 23.108 41.76 17.932 36.807 17.932 30.719 C 17.932 24.631 23.108 19.679 29.47 19.679 C 35.83 19.679 41 24.631 41 30.719 C 41 36.807 35.831 41.76 29.47 41.76 Z  M 29.47 20.109 C 23.357 20.109 18.383 24.869 18.383 30.717 C 18.383 36.569 23.357 41.327 29.47 41.327 C 35.581 41.327 40.549 36.567 40.549 30.717 C 40.551 24.869 35.581 20.109 29.47 20.109 Z " fill="rgb(255,255,255)"/><g><g><g><path d=" M 24.825 26.404 C 26.066 26.404 27.133 26.826 28.015 27.671 C 28.89 28.513 29.33 29.527 29.33 30.722 C 29.33 31.911 28.89 32.925 28.015 33.773 C 27.135 34.613 26.068 35.037 24.825 35.037 L 20.319 35.037 L 20.319 26.404 L 24.825 26.404 Z  M 22.246 33.183 L 24.825 33.183 C 25.538 33.183 26.144 32.945 26.649 32.466 C 27.151 31.985 27.398 31.402 27.398 30.721 C 27.398 30.036 27.151 29.455 26.649 28.975 C 26.146 28.496 25.54 28.251 24.825 28.251 L 22.246 28.251 L 22.246 33.183 Z " fill="rgb(255,255,255)"/></g><g><path d=" M 36.487 32.136 C 36.409 32.249 36.332 32.362 36.225 32.466 C 35.726 32.945 35.117 33.183 34.401 33.183 C 33.69 33.183 33.082 32.945 32.578 32.466 C 32.078 31.985 31.828 31.402 31.828 30.721 C 31.828 30.036 32.078 29.455 32.578 28.975 C 33.08 28.496 33.69 28.251 34.401 28.251 C 35.115 28.251 35.724 28.496 36.225 28.975 C 36.31 29.058 36.373 29.151 36.44 29.241 L 38.59 29.241 C 38.39 28.663 38.072 28.13 37.586 27.67 C 36.71 26.825 35.65 26.402 34.4 26.402 C 33.158 26.402 32.095 26.825 31.213 27.67 C 30.334 28.511 29.894 29.525 29.894 30.721 C 29.894 31.909 30.334 32.923 31.213 33.771 C 32.093 34.611 33.156 35.036 34.4 35.036 C 35.649 35.036 36.708 34.611 37.586 33.771 C 38.092 33.292 38.417 32.738 38.613 32.136 L 36.487 32.136 Z " fill="rgb(255,255,255)"/></g></g></g></g></g></g></g></svg>