<?xml version="1.0" encoding="UTF-8" standalone="no"?><!-- Generator: Gravit.io --><svg xmlns="http://www.w3.org/2000/svg" xmlns:xlink="http://www.w3.org/1999/xlink" style="isolation:isolate" viewBox="0 0 42.52 42.52" width="42.52pt" height="42.52pt"><defs><clipPath id="_clipPath_QN284dOGG34gcEqS3uf75pWEHomomw0A"><rect width="42.52" height="42.52"/></clipPath></defs><g clip-path="url(#_clipPath_QN284dOGG34gcEqS3uf75pWEHomomw0A)"><clipPath id="_clipPath_Hb8RWOA9o0FqgM4nyFU9C2Q11XspBUQx"><rect x="-14.802" y="-13.303" width="72.125" height="69.125" transform="matrix(1,0,0,1,0,0)" fill="rgb(255,255,255)"/></clipPath><g clip-path="url(#_clipPath_Hb8RWOA9o0FqgM4nyFU9C2Q11XspBUQx)"><g><g><g><g><path d=" M 32.579 14.881 L 39.291 5.26 C 38.519 4.957 35.361 3.79 31.376 2.971 L 27.397 10.842 C 29.987 12.167 31.663 13.795 32.579 14.881 Z " fill="rgb(255,255,255)"/></g><g><path d=" M 24.15 2.148 C 23.949 2.148 23.743 2.151 23.548 2.155 C 22.912 2.168 22.269 2.205 21.62 2.257 L 20.699 8.828 C 22.619 9.066 24.291 9.506 25.743 10.069 L 29.287 2.579 C 27.619 2.319 25.876 2.148 24.15 2.148 Z " fill="rgb(222,238,252)"/></g><g><path d=" M 12.524 4.494 L 14.254 9.184 C 15.801 8.848 17.114 8.628 18.877 8.675 L 19.085 2.56 C 16.841 2.92 14.616 3.548 12.524 4.494 Z " fill="rgb(184,220,247)"/></g><g><path d=" M 6.075 9.27 L 8.971 12.312 C 10.08 11.372 11.323 10.516 12.684 9.857 L 10.565 5.554 C 8.898 6.539 7.369 7.76 6.075 9.27 Z " fill="rgb(142,200,241)"/></g><g><path d=" M 7.608 13.414 L 4.64 10.989 C 3.926 12.075 3.324 13.289 2.835 14.627 L 5.142 16.157 C 5.805 15.307 6.638 14.356 7.608 13.414 Z " fill="rgb(97,182,235)"/></g><g><g><g><path d=" M 20.668 41.136 L 17.379 41.136 C 17.058 41.136 16.802 40.82 16.802 40.43 C 16.802 40.043 17.057 39.726 17.379 39.726 L 20.668 39.726 C 20.995 39.726 21.26 40.042 21.26 40.43 C 21.26 40.82 20.995 41.136 20.668 41.136 Z " fill="rgb(255,255,255)"/></g></g><g><g><path d=" M 22.544 36.862 L 15.516 36.862 C 15.055 36.862 14.685 36.545 14.685 36.156 C 14.685 35.766 15.055 35.451 15.516 35.451 L 22.544 35.451 C 22.997 35.451 23.379 35.765 23.379 36.156 C 23.379 36.545 22.995 36.862 22.544 36.862 Z " fill="rgb(255,255,255)"/></g></g><g><g><path d=" M 22.103 38.974 L 15.956 38.974 C 15.552 38.974 15.228 38.66 15.228 38.271 C 15.228 37.883 15.55 37.567 15.956 37.567 L 22.103 37.567 C 22.498 37.567 22.832 37.881 22.832 38.271 C 22.832 38.66 22.498 38.974 22.103 38.974 Z " fill="rgb(255,255,255)"/></g></g><g><path d=" M 28.221 16.945 C 26.849 14.552 24.686 13.125 21.979 12.408 C 20.288 11.959 18.58 11.899 16.848 12.21 C 14.446 12.636 12.385 13.661 10.767 15.429 C 9.71 16.581 9.023 17.924 8.823 19.455 C 8.528 21.725 9.071 23.853 10.126 25.882 C 10.87 27.317 11.839 28.626 12.73 29.975 C 13.301 30.835 14.273 31.731 14.373 32.775 C 14.422 33.256 14.695 33.708 14.685 34.196 L 23.379 34.199 C 23.379 34.199 23.826 32.326 24.29 31.447 C 24.873 30.341 25.614 29.335 26.315 28.299 C 27.694 26.256 28.844 24.128 29.107 21.65 C 29.282 19.992 29.061 18.412 28.221 16.945 Z  M 16.731 28.28 C 16.441 28.337 16.153 28.156 16.1 27.877 L 14.897 22.156 C 14.841 21.875 15.03 21.601 15.318 21.546 C 15.615 21.491 15.895 21.671 15.952 21.951 L 17.15 27.673 C 17.211 27.953 17.019 28.226 16.731 28.28 Z  M 17.206 22.237 C 17.046 22.39 16.795 22.39 16.639 22.237 C 16.483 22.087 16.483 21.844 16.639 21.696 L 17.533 20.837 C 17.696 20.688 17.947 20.688 18.1 20.837 C 18.261 20.987 18.261 21.231 18.1 21.38 L 17.206 22.237 Z  M 18.873 22.237 C 18.714 22.39 18.466 22.39 18.307 22.237 C 18.152 22.087 18.152 21.844 18.307 21.696 L 19.201 20.837 C 19.362 20.688 19.613 20.688 19.771 20.837 C 19.923 20.987 19.923 21.231 19.771 21.38 L 18.873 22.237 Z  M 19.973 22.237 C 19.815 22.087 19.815 21.844 19.973 21.696 L 20.866 20.837 C 21.026 20.688 21.277 20.688 21.435 20.837 C 21.589 20.987 21.589 21.231 21.435 21.38 L 20.536 22.237 C 20.38 22.39 20.125 22.39 19.973 22.237 Z  M 21.565 27.877 C 21.513 28.156 21.229 28.337 20.936 28.28 C 20.644 28.226 20.461 27.953 20.515 27.673 L 21.713 21.951 C 21.771 21.671 22.052 21.491 22.341 21.546 C 22.637 21.601 22.824 21.875 22.771 22.156 L 21.565 27.877 Z " fill-rule="evenodd" fill="rgb(255,255,255)"/></g></g></g></g></g></g></g></svg>