<?xml version="1.0" encoding="UTF-8" standalone="no"?><!-- Generator: Gravit.io --><svg xmlns="http://www.w3.org/2000/svg" xmlns:xlink="http://www.w3.org/1999/xlink" style="isolation:isolate" viewBox="0 0 42.52 42.52" width="42.52pt" height="42.52pt"><defs><clipPath id="_clipPath_I25tC9oLX3Fkc40k3n5RVprIVHPTVPbt"><rect width="42.52" height="42.52"/></clipPath></defs><g clip-path="url(#_clipPath_I25tC9oLX3Fkc40k3n5RVprIVHPTVPbt)"><g><g><g><g><path d=" M 3.601 14.848 L 1 14.848 L 1 32 L 10.054 32 L 10.054 29.083 L 3.601 29.083 L 3.601 14.848 Z " fill="rgb(255,255,255)"/></g><g><path d=" M 14.503 24.382 L 19.521 24.382 L 19.521 21.461 L 14.503 21.461 L 14.503 17.632 L 21.436 17.632 L 21.436 14.701 L 11.904 14.701 L 11.904 32 L 21.683 32 L 21.683 29.083 L 14.503 29.083 L 14.503 24.382 Z " fill="rgb(255,255,255)"/></g><g><path d=" M 31.708 26.529 C 31.533 27.307 31.305 27.863 31.025 28.199 C 30.75 28.54 30.401 28.779 29.983 28.918 C 29.658 29.029 29.14 29.083 28.41 29.083 L 26.474 29.083 L 26.474 17.63 L 27.638 17.63 C 27.854 17.63 28.045 17.634 28.234 17.639 L 28.234 14.701 L 23.873 14.701 L 23.873 31.998 L 28.761 31.998 C 29.721 31.998 30.485 31.88 31.058 31.633 C 31.823 31.299 32.431 30.843 32.884 30.254 C 33.478 29.472 33.939 28.456 34.26 27.201 C 34.443 26.473 34.542 25.62 34.598 24.705 L 31.93 24.705 C 31.894 25.422 31.82 26.039 31.708 26.529 Z " fill="rgb(255,255,255)"/></g><g><path d=" M 34.739 18.449 C 34.405 18.255 33.886 18.06 33.193 17.875 C 32.495 17.687 32.059 17.511 31.874 17.339 C 31.733 17.207 31.662 17.044 31.662 16.853 C 31.662 16.649 31.739 16.481 31.891 16.36 C 32.128 16.168 32.451 16.071 32.87 16.071 C 33.271 16.071 33.575 16.162 33.776 16.342 C 33.978 16.522 34.109 16.816 34.171 17.226 L 35.604 17.157 C 35.579 16.423 35.345 15.836 34.894 15.398 C 34.444 14.957 33.774 14.74 32.88 14.74 C 32.337 14.74 31.871 14.833 31.487 15.017 C 31.099 15.202 30.806 15.471 30.6 15.827 C 30.394 16.182 30.29 16.561 30.29 16.965 C 30.29 17.598 30.508 18.134 30.946 18.572 C 31.255 18.887 31.792 19.15 32.561 19.363 C 33.155 19.532 33.539 19.645 33.705 19.711 C 33.95 19.81 34.122 19.925 34.222 20.058 C 34.321 20.191 34.369 20.351 34.369 20.54 C 34.369 20.837 34.253 21.092 34.02 21.311 C 33.783 21.532 33.437 21.643 32.976 21.643 C 32.539 21.643 32.195 21.517 31.937 21.272 C 31.683 21.024 31.51 20.638 31.425 20.112 L 30.032 20.266 C 30.126 21.157 30.412 21.837 30.89 22.304 C 31.372 22.772 32.06 23.005 32.958 23.005 C 33.573 23.005 34.087 22.907 34.502 22.714 C 34.917 22.521 35.233 22.223 35.46 21.826 C 35.687 21.424 35.799 20.998 35.799 20.538 C 35.799 20.036 35.704 19.61 35.516 19.267 C 35.33 18.918 35.072 18.646 34.739 18.449 Z " fill="rgb(255,255,255)"/></g><g><path d=" M 36.639 12.431 C 35.271 11.358 33.86 11.208 32.864 11.286 L 32.864 12.483 C 33.623 12.414 34.752 12.507 35.854 13.365 C 37.215 14.431 37.615 15.684 37.606 17.024 L 38.847 17.016 C 38.855 15.424 38.343 13.765 36.639 12.431 Z " fill="rgb(255,255,255)"/></g><g><path d=" M 38.926 10.142 C 36.693 8.313 34.395 7.977 32.864 8.001 L 32.864 9.252 C 34.179 9.234 36.208 9.525 38.142 11.119 C 39.993 12.633 40.711 14.941 40.759 17.022 L 42 17.022 C 41.949 14.687 41.122 11.942 38.926 10.142 Z " fill="rgb(255,255,255)"/></g></g></g></g></g></svg>