<?xml version="1.0" encoding="UTF-8" standalone="no"?><!-- Generator: Gravit.io --><svg xmlns="http://www.w3.org/2000/svg" xmlns:xlink="http://www.w3.org/1999/xlink" style="isolation:isolate" viewBox="0 0 42.52 42.52" width="42.52pt" height="42.52pt"><defs><clipPath id="_clipPath_tC79mBCcgxeSYZDjaN6TLS5MhlEgnf7M"><rect width="42.52" height="42.52"/></clipPath></defs><g clip-path="url(#_clipPath_tC79mBCcgxeSYZDjaN6TLS5MhlEgnf7M)"><g><g><g><g><path d=" M 5.422 35 L 32.98 35 C 33.667 35 34.298 34.473 34.797 34.063 C 36.609 32.58 37.205 30.417 36.366 28.349 C 35.58 26.409 33.568 25.054 31.34 25.017 C 30.834 25.007 30.728 24.884 30.709 24.439 C 30.561 21.059 27.606 18.544 23.862 18.572 C 23.073 18.582 22.344 18.708 21.665 18.933 C 20.448 17.102 18.593 16.019 16.047 15.815 C 12.804 15.554 10.331 16.702 8.643 19.172 C 7.363 21.041 7.509 23.067 7.984 25.107 C 8.02 25.177 8.051 25.245 8.086 25.313 C 8.007 25.284 7.929 25.255 7.849 25.226 C 5.239 25.258 2.864 25.68 1.584 28.075 C -0.049 31.13 1.907 35 5.422 35 Z " fill-rule="evenodd" fill="rgb(255,255,255)"/></g><g><path d=" M 36.96 10.011 C 29.689 4.648 24.016 8.084 24.016 8.084 C 24.016 8.084 29.307 6.476 35.802 11.272 C 42.301 16.066 41.496 21.077 41.496 21.077 C 41.496 21.077 44.231 15.376 36.96 10.011 Z " fill-rule="evenodd" fill="rgb(255,255,255)"/></g><g><path d=" M 33.665 13.591 C 27.973 9.39 23.192 12.244 23.192 12.244 C 23.192 12.244 27.776 11.096 32.65 14.692 C 37.526 18.288 37.19 22.587 37.19 22.587 C 37.19 22.587 39.359 17.793 33.665 13.591 Z " fill-rule="evenodd" fill="rgb(255,255,255)"/></g><g><path d=" M 30.374 17.167 C 26.711 14.464 23.672 16.33 23.672 16.33 C 23.672 16.33 26.904 15.772 29.737 17.861 C 32.567 19.951 32.583 22.921 32.583 22.921 C 32.583 22.921 34.036 19.869 30.374 17.167 Z " fill-rule="evenodd" fill="rgb(255,255,255)"/></g></g></g></g></g></svg>