<?xml version="1.0" encoding="UTF-8" standalone="no"?><!-- Generator: Gravit.io --><svg xmlns="http://www.w3.org/2000/svg" xmlns:xlink="http://www.w3.org/1999/xlink" style="isolation:isolate" viewBox="0 0 42.52 42.52" width="42.52pt" height="42.52pt"><defs><clipPath id="_clipPath_iFMap2I58pT1rLEX7ZdQLrkzHJi68ybV"><rect width="42.52" height="42.52"/></clipPath></defs><g clip-path="url(#_clipPath_iFMap2I58pT1rLEX7ZdQLrkzHJi68ybV)"><g><g><g><g><g><path d=" M 26.962 19.351 C 27.954 19.405 28.945 19.359 29.939 19.368 C 30.519 19.372 31 19.234 31 18.645 C 31 18.054 30.498 17.926 29.939 17.926 C 28.945 17.917 27.945 17.88 26.962 17.935 C 26.256 17.98 26.2 17.694 26.2 17.196 C 26.191 16.711 26.286 16.462 26.93 16.525 C 27.425 16.579 27.945 16.532 28.456 16.536 C 29.023 16.54 29.409 16.335 29.402 15.811 C 29.398 15.33 29.023 15.131 28.504 15.133 C 27.962 15.133 27.412 15.1 26.867 15.142 C 26.265 15.181 26.189 14.893 26.209 14.464 C 26.23 14.07 26.124 13.669 26.854 13.7 C 27.906 13.745 28.969 13.704 30.024 13.713 C 30.573 13.715 31 13.565 31 13.013 C 30.991 12.481 30.589 12.303 30.039 12.307 C 29.047 12.312 28.049 12.271 27.064 12.316 C 26.419 12.351 26.193 12.216 26.189 11.602 C 26.18 10.928 26.509 10.865 27.109 10.9 C 27.551 10.93 28.001 10.915 28.449 10.909 C 28.999 10.9 29.419 10.714 29.402 10.177 C 29.398 9.657 28.954 9.478 28.419 9.467 C 27.876 9.462 27.334 9.458 26.782 9.469 C 26.403 9.482 26.23 9.4 26.2 9.01 C 26.146 8.336 26.263 7.927 27.2 8.07 C 27.605 8.135 29.474 8.074 29.976 8.083 C 30.571 8.096 31.015 7.927 30.991 7.336 C 30.978 6.786 30.517 6.669 29.985 6.674 C 28.993 6.684 27.999 6.645 27.007 6.689 C 26.362 6.717 26.17 6.518 26.2 5.968 C 26.245 4.957 25.908 4.023 25.254 3.186 C 23.857 1.397 21.33 0.618 18.996 1.248 C 16.632 1.886 15.025 3.727 15.021 5.907 C 15.004 12.47 15.004 19.037 15.025 25.604 C 15.034 26.236 14.863 26.66 14.283 27.102 C 10.609 29.906 9.942 34.697 12.672 38.194 C 15.446 41.751 20.772 42.929 25.089 40.942 C 29.415 38.945 31.355 34.414 29.586 30.391 C 28.991 29.027 28.084 27.832 26.739 26.948 C 25.973 26.442 26.137 25.779 26.276 25.199 C 26.377 24.733 27.042 25.021 27.438 24.995 C 28.307 24.95 29.166 24.982 30.034 24.987 C 30.584 24.991 30.987 24.818 30.987 24.276 C 30.987 23.731 30.569 23.579 30.019 23.579 C 29.058 23.588 28.103 23.562 27.142 23.588 C 26.583 23.594 26.189 23.607 26.185 22.91 C 26.176 22.215 26.505 22.105 27.159 22.157 C 27.568 22.193 27.988 22.157 28.406 22.168 C 28.95 22.172 29.393 22.018 29.398 21.483 C 29.406 20.897 28.941 20.743 28.361 20.756 C 27.88 20.771 27.393 20.717 26.919 20.771 C 26.276 20.836 26.189 20.574 26.198 20.093 C 26.2 19.602 26.263 19.312 26.962 19.351 Z  M 28.099 35.968 C 26.867 38.818 23.586 40.697 20.202 40.485 C 16.567 40.26 13.612 38.12 12.847 35 C 12.124 32.09 13.176 29.663 15.837 27.825 C 16.357 27.455 16.615 27.115 16.615 26.506 C 16.589 19.747 16.606 12.983 16.615 6.228 C 16.619 4.078 18.234 2.519 20.482 2.467 C 22.822 2.419 24.602 3.943 24.611 6.061 C 24.637 9.469 24.619 12.872 24.619 16.283 C 24.619 19.662 24.637 23.044 24.602 26.429 C 24.598 27.059 24.829 27.444 25.401 27.827 C 28.311 29.737 29.372 33.017 28.099 35.968 Z " fill="rgb(255,255,255)"/></g><g><path d=" M 22.389 27.769 C 22.411 26.006 22.411 24.237 22.406 22.475 L 22.402 13.07 L 18.83 13.104 L 18.83 17.227 C 18.83 20.695 18.83 24.168 18.834 27.795 C 16.097 28.561 14.411 31.03 14.893 33.55 C 15.402 36.128 17.741 37.943 20.581 37.96 L 20.635 37.96 C 23.45 37.96 25.91 36.083 26.343 33.593 C 26.797 31.06 25.204 28.656 22.389 27.769 Z  M 20.635 36.958 L 20.635 36.958 L 20.635 36.966 L 20.635 36.958 Z " fill="rgb(255,255,255)"/></g></g></g></g></g></g></svg>