<?xml version="1.0" encoding="UTF-8" standalone="no"?><!-- Generator: Gravit.io --><svg xmlns="http://www.w3.org/2000/svg" xmlns:xlink="http://www.w3.org/1999/xlink" style="isolation:isolate" viewBox="0 0 42.52 42.52" width="42.52pt" height="42.52pt"><defs><clipPath id="_clipPath_xOcoFkJ12FHaizu3V0ftsg8BEQ9tfLjL"><rect width="42.52" height="42.52"/></clipPath></defs><g clip-path="url(#_clipPath_xOcoFkJ12FHaizu3V0ftsg8BEQ9tfLjL)"><g><g><g><g><path d=" M 6.244 30.501 C 5.856 29.962 5.508 29.401 5.192 28.825 C 5.085 28.625 4.991 28.423 4.89 28.219 C 4.661 27.744 4.452 27.258 4.268 26.764 C 4.178 26.523 4.092 26.282 4.018 26.037 C 3.855 25.523 3.729 24.995 3.62 24.462 C 3.577 24.248 3.524 24.032 3.49 23.815 C 3.372 23.056 3.297 22.287 3.297 21.499 C 3.297 20.966 3.327 20.438 3.38 19.915 C 3.38 19.899 3.385 19.881 3.387 19.866 C 3.438 19.375 3.517 18.891 3.614 18.413 C 3.635 18.322 3.658 18.234 3.68 18.144 C 3.772 17.744 3.872 17.348 3.992 16.96 C 4.03 16.838 4.075 16.722 4.118 16.601 C 4.24 16.248 4.366 15.899 4.512 15.556 C 4.567 15.424 4.631 15.295 4.691 15.165 C 4.837 14.844 4.993 14.524 5.159 14.212 C 5.234 14.077 5.311 13.942 5.388 13.808 C 5.559 13.514 5.739 13.222 5.927 12.94 C 6.019 12.803 6.115 12.665 6.211 12.53 C 6.404 12.259 6.605 11.997 6.81 11.738 C 6.921 11.602 7.032 11.465 7.146 11.334 C 7.355 11.089 7.576 10.851 7.802 10.616 C 7.928 10.485 8.057 10.351 8.187 10.224 C 8.414 10.004 8.651 9.791 8.888 9.585 C 9.034 9.457 9.179 9.326 9.331 9.204 C 9.566 9.008 9.816 8.828 10.062 8.645 C 10.229 8.522 10.392 8.396 10.565 8.279 C 10.809 8.112 11.063 7.959 11.317 7.804 C 11.506 7.689 11.689 7.569 11.884 7.459 C 12.126 7.324 12.376 7.2 12.626 7.077 C 12.846 6.965 13.058 6.849 13.28 6.747 C 13.468 6.661 13.665 6.59 13.858 6.51 C 14.961 6.051 16.122 5.688 17.328 5.439 C 18.072 5.286 18.825 5.159 19.601 5.094 L 19.601 7.981 C 16.586 8.581 14.317 11.034 14.317 13.985 C 14.317 14.338 27.719 14.338 27.719 13.985 C 27.719 11.191 25.677 8.865 22.904 8.114 L 22.904 2 L 21.256 2 C 19.355 2 17.522 2.251 15.767 2.684 C 15.611 2.724 15.453 2.753 15.297 2.796 C 14.88 2.908 14.469 3.041 14.063 3.175 C 13.855 3.243 13.648 3.308 13.445 3.382 C 13.071 3.518 12.703 3.669 12.339 3.824 C 12.115 3.922 11.888 4.02 11.668 4.122 C 11.33 4.279 10.997 4.445 10.665 4.62 C 10.428 4.743 10.197 4.875 9.968 5.008 C 9.665 5.183 9.363 5.359 9.07 5.547 C 8.824 5.706 8.585 5.875 8.347 6.043 C 8.084 6.23 7.817 6.412 7.565 6.608 C 7.293 6.818 7.037 7.045 6.776 7.267 C 6.573 7.441 6.361 7.606 6.164 7.789 C 5.726 8.196 5.305 8.622 4.903 9.061 C 4.785 9.191 4.68 9.334 4.567 9.465 C 4.281 9.798 3.996 10.136 3.733 10.487 C 3.599 10.665 3.481 10.851 3.353 11.032 C 3.13 11.353 2.91 11.675 2.705 12.008 C 2.583 12.21 2.472 12.416 2.354 12.622 C 2.17 12.952 1.995 13.283 1.828 13.622 C 1.723 13.838 1.627 14.056 1.531 14.275 C 1.381 14.62 1.24 14.969 1.11 15.324 C 1.031 15.546 0.951 15.769 0.877 15.995 C 0.759 16.363 0.656 16.74 0.564 17.118 C 0.509 17.338 0.447 17.556 0.402 17.779 C 0.312 18.195 0.248 18.618 0.188 19.044 C 0.163 19.236 0.126 19.424 0.105 19.619 C 0.038 20.238 0 20.868 0 21.505 L 0 21.505 C 0 21.507 0 21.507 0 21.507 C 0 21.513 0 21.517 0 21.523 C 0.002 22.421 0.083 23.307 0.218 24.183 C 0.259 24.452 0.327 24.709 0.376 24.972 C 0.5 25.587 0.644 26.201 0.827 26.807 C 0.909 27.064 1.001 27.317 1.093 27.574 C 1.313 28.19 1.567 28.795 1.85 29.39 C 1.944 29.582 2.033 29.768 2.134 29.956 C 2.489 30.631 2.887 31.286 3.321 31.917 C 3.366 31.978 3.395 32.051 3.442 32.113 C 3.447 32.113 3.447 32.109 3.451 32.105 C 4.982 34.272 6.964 36.184 9.37 37.674 C 10.129 38.145 11.149 37.968 11.662 37.268 C 12.171 36.582 11.978 35.637 11.215 35.17 C 9.196 33.909 7.533 32.311 6.244 30.501 Z " fill="rgb(255,255,255)"/></g><g><path d=" M 39.152 31.982 C 39.332 31.725 39.503 31.464 39.67 31.201 C 39.807 30.984 39.946 30.764 40.074 30.539 C 40.279 30.182 40.467 29.815 40.649 29.446 C 40.722 29.301 40.801 29.16 40.869 29.009 C 41.107 28.492 41.316 27.96 41.506 27.423 C 41.564 27.25 41.613 27.078 41.667 26.909 C 41.793 26.511 41.908 26.109 42.005 25.699 C 42.054 25.503 42.097 25.305 42.139 25.105 C 42.223 24.691 42.289 24.278 42.349 23.856 C 42.372 23.676 42.4 23.495 42.42 23.313 C 42.479 22.713 42.52 22.107 42.52 21.495 L 42.52 21.495 C 42.52 21.493 42.52 21.493 42.52 21.493 C 42.52 20.726 42.464 19.977 42.37 19.236 C 42.325 18.893 42.244 18.562 42.182 18.222 C 42.112 17.848 42.047 17.469 41.956 17.103 C 41.84 16.644 41.69 16.197 41.541 15.75 C 41.466 15.534 41.4 15.316 41.318 15.105 C 41.124 14.589 40.899 14.085 40.656 13.589 C 40.626 13.526 40.604 13.459 40.572 13.395 C 40.568 13.397 40.566 13.399 40.564 13.401 C 38.96 10.187 36.445 7.371 33.146 5.326 C 32.398 4.855 31.371 5.037 30.858 5.732 C 30.349 6.424 30.542 7.367 31.305 7.834 C 34.049 9.536 36.155 11.877 37.51 14.548 C 37.765 15.044 37.996 15.552 38.194 16.071 C 38.218 16.134 38.237 16.199 38.261 16.263 C 38.445 16.765 38.611 17.277 38.746 17.799 C 38.774 17.909 38.789 18.02 38.812 18.132 C 38.928 18.624 39.033 19.122 39.097 19.63 C 39.101 19.675 39.101 19.724 39.105 19.77 C 39.172 20.336 39.214 20.911 39.214 21.495 C 39.214 21.593 39.202 21.689 39.197 21.785 C 39.187 22.395 39.135 22.997 39.052 23.585 C 39.02 23.819 38.986 24.048 38.943 24.276 C 38.821 24.927 38.671 25.566 38.47 26.184 C 38.417 26.348 38.348 26.501 38.291 26.662 C 38.1 27.188 37.884 27.695 37.639 28.193 C 37.555 28.366 37.476 28.543 37.384 28.711 C 37.068 29.309 36.713 29.884 36.319 30.439 C 36.234 30.562 36.14 30.676 36.048 30.796 C 35.663 31.309 35.254 31.803 34.812 32.266 C 34.748 32.335 34.686 32.407 34.619 32.476 C 34.104 33.005 33.546 33.498 32.962 33.962 C 32.883 34.023 32.8 34.086 32.716 34.151 C 31.485 35.09 30.114 35.882 28.637 36.494 C 26.862 37.233 24.94 37.731 22.915 37.9 L 22.915 33.878 C 25.684 33.127 27.722 30.803 27.722 28.015 C 27.722 27.658 14.319 27.658 14.319 28.015 C 14.319 30.964 16.59 33.423 19.611 34.017 L 19.611 41 L 21.258 41 C 23.721 41 26.082 40.594 28.286 39.882 L 28.286 39.882 C 28.307 39.878 28.329 39.867 28.348 39.859 C 30.334 39.212 32.182 38.304 33.845 37.178 C 33.944 37.11 34.042 37.045 34.14 36.974 C 34.493 36.725 34.84 36.472 35.175 36.204 C 35.28 36.119 35.378 36.031 35.481 35.947 C 36.45 35.143 37.339 34.262 38.135 33.307 C 38.306 33.104 38.479 32.898 38.641 32.688 C 38.815 32.458 38.986 32.221 39.152 31.982 Z " fill="rgb(255,255,255)"/></g><g><path d=" M 27.317 14.632 C 25.898 14.869 16.137 14.869 14.713 14.632 C 14.228 14.391 13.49 14.75 13.49 15.299 C 13.49 16.156 14.337 16.187 16.385 16.254 C 16.631 16.263 16.907 16.271 17.182 16.277 C 17.157 16.348 17.138 16.418 17.138 16.497 L 17.138 18.283 C 17.138 18.677 17.467 18.993 17.869 18.993 C 18.277 18.993 18.604 18.677 18.604 18.283 L 18.604 16.497 C 18.604 16.428 18.583 16.367 18.566 16.305 C 19.348 16.316 20.187 16.322 21.021 16.322 C 21.968 16.322 22.797 16.318 23.522 16.311 C 23.505 16.371 23.484 16.43 23.484 16.497 L 23.484 18.283 C 23.484 18.677 23.813 18.993 24.224 18.993 C 24.626 18.993 24.955 18.677 24.955 18.283 L 24.955 16.497 C 24.955 16.422 24.933 16.356 24.912 16.291 C 28.523 16.207 28.541 15.946 28.541 15.299 C 28.541 14.75 27.805 14.391 27.317 14.632 Z " fill="rgb(255,255,255)"/></g><g><path d=" M 27.317 27.356 C 27.807 27.597 28.541 27.244 28.541 26.689 C 28.541 25.835 27.696 25.805 25.65 25.733 C 25.404 25.725 25.132 25.717 24.856 25.713 C 24.882 25.64 24.901 25.572 24.901 25.491 L 24.901 23.711 C 24.901 23.317 24.572 22.999 24.166 22.999 C 23.753 22.999 23.426 23.317 23.426 23.711 L 23.426 25.491 C 23.426 25.56 23.447 25.621 23.467 25.684 C 22.684 25.672 21.852 25.668 21.016 25.668 C 20.069 25.668 19.237 25.668 18.515 25.676 C 18.532 25.619 18.553 25.556 18.553 25.491 L 18.553 23.711 C 18.553 23.317 18.215 22.999 17.809 22.999 C 17.407 22.999 17.082 23.317 17.082 23.711 L 17.082 25.491 C 17.082 25.568 17.103 25.633 17.125 25.697 C 13.505 25.782 13.488 26.046 13.488 26.689 C 13.488 27.244 14.223 27.597 14.711 27.356 C 16.137 27.123 25.902 27.123 27.317 27.356 Z " fill="rgb(255,255,255)"/></g></g></g></g></g></svg>