<svg version="1.1" id="Layer_1" xmlns="http://www.w3.org/2000/svg" xmlns:xlink="http://www.w3.org/1999/xlink" x="0px" y="0px"
viewBox="0 0 118.1 118.4" style="enable-background:new 0 0 118.1 118.4;" xml:space="preserve">
<style type="text/css">
.st0{fill:#5E5958;}
.st1{fill:#1C9BD7;}
</style>

<g>
<g>
<path class="st0" d="M88.5,12c-1.7,0.3-3.4,0.8-4.9,1.5c15.8,9.5,27.4,25.3,31.2,43.9c1.2-1.3,2.2-2.6,3-4.1
C113.5,36.2,102.8,21.6,88.5,12z"/>
</g>
<g>
<path class="st0" d="M76.6,16.7c-0.7,0.6-1.4,1.2-2,1.9c-0.3,0.3-0.6,0.6-0.9,1c16.9,8.2,29.1,24.7,31.2,44.1
c1.3-0.5,2.5-1.2,3.7-1.9C105.8,42.1,93.6,25.5,76.6,16.7z"/>
</g>
<path class="st0" d="M96.8,65.7c-0.9-11.6-5.5-21.6-14-30.1c-4-4-8.4-7.2-13.2-9.5c-1.8,3.7-2.7,7.7-2.7,12.1
c0,7.6,2.7,14.1,8.1,19.5c5.4,5.4,11.9,8.1,19.5,8.1C95.3,65.8,96,65.7,96.8,65.7z"/>
<path class="st1" d="M73.5,81.8c-1.3,2.7-3.1,5.2-5.4,7.4c-5.4,5.4-11.9,8.1-19.5,8.1s-14.1-2.7-19.5-8.1
c-5.4-5.4-8.1-11.9-8.1-19.5s2.7-14.1,8.1-19.5c4.8-4.8,10.6-7.5,17.2-8c-0.1-1.3-0.2-2.7-0.2-4.1c0-6,0.9-11.5,2.8-16.7
c-0.1,0-0.3,0-0.4,0c-10.4,0-19.6,2.9-27.6,8.6V0.5H0.6L0.4,69.8c0,13.3,4.7,24.7,14.1,34.1C24,113.3,35.3,118,48.7,118
c13.3,0,24.7-4.7,34.1-14.1c5.2-5.2,9-11,11.3-17.4C86.6,86.4,79.8,84.9,73.5,81.8z"/>
</g>
</svg>