<?xml version="1.0" encoding="UTF-8" standalone="no"?><!-- Generator: Gravit.io --><svg xmlns="http://www.w3.org/2000/svg" xmlns:xlink="http://www.w3.org/1999/xlink" style="isolation:isolate" viewBox="0 0 42.52 42.52" width="42.52pt" height="42.52pt"><defs><clipPath id="_clipPath_A93Un2nZUP0GaDPNfsDlQEZjE9E6vEl8"><rect width="42.52" height="42.52"/></clipPath></defs><g clip-path="url(#_clipPath_A93Un2nZUP0GaDPNfsDlQEZjE9E6vEl8)"><g><g><g><g><path d=" M 7.297 13.122 L 7.297 34.367 L 41 34.367 L 41 13.122 L 7.297 13.122 Z  M 39.308 29.831 L 9.146 29.831 L 9.146 28.177 L 39.308 28.177 L 39.308 29.831 Z  M 39.308 24.883 L 9.146 24.883 L 9.146 23.229 L 39.308 23.229 L 39.308 24.883 Z  M 39.308 19.935 L 9.146 19.935 L 9.146 18.286 L 39.308 18.286 L 39.308 19.935 Z " fill="rgb(255,255,255)"/></g><g><g><rect x="33.876" y="11.54" width="1.441" height="23.915" transform="matrix(1,0,0,1,0,0)" fill="rgb(255,255,255)"/></g><g><path d=" M 33.876 37 L 35.317 37 L 36.674 37 L 36.674 35.455 L 36.674 11.54 L 36.674 10 L 35.317 10 L 33.876 10 L 32.525 10 L 32.525 11.54 L 32.525 35.455 L 32.525 37 L 33.876 37 Z  M 33.876 11.54 L 35.317 11.54 L 35.317 35.455 L 33.876 35.455 L 33.876 11.54 Z " fill="rgb(91,153,212)"/></g></g><g><rect x="1" y="11.54" width="1.447" height="23.915" transform="matrix(1,0,0,1,0,0)" fill="rgb(255,255,255)"/></g></g></g></g></g></svg>