<?xml version="1.0" standalone="no"?><!-- Generator: Gravit.io --><svg xmlns="http://www.w3.org/2000/svg" xmlns:xlink="http://www.w3.org/1999/xlink" style="isolation:isolate" viewBox="0 0 42.52 42.52" width="42.52px" height="42.52px"><defs><clipPath id="_clipPath_OU5xKzlA9KeoukD53l1xr9FwujtYUSct"><rect width="42.52" height="42.52"/></clipPath></defs><g clip-path="url(#_clipPath_OU5xKzlA9KeoukD53l1xr9FwujtYUSct)"><g><path d=" M 33.145 3.633 C 32.39 3.121 31.365 3.32 30.852 4.075 C 30.344 4.829 30.541 5.856 31.299 6.366 C 36.256 9.717 39.217 15.287 39.217 21.262 C 39.217 31.165 31.162 39.218 21.258 39.218 C 11.358 39.218 3.303 31.165 3.303 21.262 C 3.303 11.916 10.478 4.216 19.612 3.377 L 19.612 8.372 C 19.612 9.286 20.346 10.023 21.258 10.023 C 22.169 10.023 22.908 9.284 22.908 8.372 L 22.908 0 L 21.258 0 C 9.541 0 0 9.54 0 21.262 C 0 32.984 9.541 42.52 21.258 42.52 C 32.979 42.52 42.52 32.984 42.52 21.262 C 42.52 14.188 39.017 7.598 33.145 3.633 Z " fill="rgb(255,255,255)"/><path d=" M 14.323 17.548 C 14.323 17.936 27.716 17.936 27.716 17.548 C 27.716 13.848 24.719 10.847 21.019 10.847 C 17.319 10.847 14.323 13.846 14.323 17.548 Z " fill="rgb(255,255,255)"/><path d=" M 14.718 18.265 C 14.23 18 13.497 18.389 13.497 18.991 C 13.497 19.924 14.343 19.956 16.384 20.033 C 17.652 20.082 19.336 20.105 21.021 20.105 C 28.542 20.105 28.542 19.889 28.542 18.991 C 28.542 18.389 27.808 18 27.321 18.265 C 25.899 18.525 16.14 18.525 14.718 18.265 Z " fill="rgb(255,255,255)"/><path d=" M 17.084 21.429 L 17.084 23.378 C 17.084 23.809 17.413 24.157 17.818 24.157 C 18.226 24.157 18.557 23.809 18.557 23.378 L 18.557 21.429 C 18.557 21.002 18.228 20.654 17.818 20.654 C 17.413 20.654 17.084 21.002 17.084 21.429 Z " fill="rgb(255,255,255)"/><path d=" M 23.433 21.429 L 23.433 23.378 C 23.433 23.809 23.758 24.157 24.168 24.157 C 24.571 24.157 24.907 23.809 24.907 23.378 L 24.907 21.429 C 24.907 21.002 24.573 20.654 24.168 20.654 C 23.76 20.654 23.433 21.002 23.433 21.429 Z " fill="rgb(255,255,255)"/></g></g></svg>