<?xml version="1.0" encoding="UTF-8" standalone="no"?><!-- Generator: Gravit.io --><svg xmlns="http://www.w3.org/2000/svg" xmlns:xlink="http://www.w3.org/1999/xlink" style="isolation:isolate" viewBox="0 0 42.52 42.52" width="42.52pt" height="42.52pt"><defs><clipPath id="_clipPath_dkHmjR8j0fpnC4hyEUbX2iYZGRsdxCKu"><rect width="42.52" height="42.52"/></clipPath></defs><g clip-path="url(#_clipPath_dkHmjR8j0fpnC4hyEUbX2iYZGRsdxCKu)"><g><g><g><g><path d=" M 4.564 15.397 L 2 15.397 L 2 32 L 10.938 32 L 10.938 29.18 L 4.564 29.18 L 4.564 15.397 Z " fill="rgb(255,255,255)"/></g><g><path d=" M 15.333 24.625 L 20.291 24.625 L 20.291 21.804 L 15.333 21.804 L 15.333 18.094 L 22.182 18.094 L 22.182 15.26 L 12.769 15.26 L 12.769 32 L 22.425 32 L 22.425 29.18 L 15.333 29.18 L 15.333 24.625 Z " fill="rgb(255,255,255)"/></g><g><path d=" M 32.552 22.449 C 32.572 22.815 32.586 23.205 32.586 23.642 C 32.586 24.933 32.501 25.957 32.327 26.706 C 32.155 27.46 31.93 27.995 31.655 28.324 C 31.381 28.652 31.036 28.881 30.622 29.018 C 30.303 29.126 29.786 29.178 29.07 29.178 L 27.158 29.178 L 27.158 18.094 L 28.308 18.094 C 28.522 18.094 28.711 18.097 28.895 18.103 L 28.895 15.26 L 24.591 15.26 L 24.591 32 L 29.415 32 C 30.364 32 31.118 31.885 31.683 31.649 C 32.439 31.328 33.042 30.881 33.488 30.314 C 34.076 29.557 34.53 28.573 34.846 27.355 C 35.105 26.355 35.235 25.169 35.235 23.793 C 35.235 23.305 35.198 22.887 35.171 22.449 L 32.552 22.449 Z " fill="rgb(255,255,255)"/></g><g><ellipse vector-effect="non-scaling-stroke" cx="31.162230035692062" cy="19.836151709714606" rx="0.770822230881258" ry="0.8504423630595035" fill="rgb(255,255,255)"/></g><g><path d=" M 32.696 17.921 C 33.076 18.332 33.102 19.006 33.068 19.463 L 34.293 19.463 C 34.33 18.739 34.242 17.701 33.55 16.955 C 32.732 16.076 31.7 16.078 31.205 16.142 L 31.205 17.463 L 31.214 17.501 C 31.249 17.494 32.1 17.278 32.696 17.921 Z " fill="rgb(255,255,255)"/></g><g><path d=" M 31.205 12.582 L 31.205 13.948 C 31.602 13.849 33.372 13.535 34.895 15.177 C 36.14 16.517 36.308 18.389 36.292 19.465 L 37.517 19.465 C 37.536 18.148 37.312 15.899 35.746 14.213 C 34.019 12.35 32.054 12.434 31.205 12.582 Z " fill="rgb(255,255,255)"/></g><g><path d=" M 38.555 11.959 C 35.537 8.707 32.038 8.943 31.205 9.052 L 31.205 10.252 L 31.231 10.407 C 31.265 10.4 34.771 9.761 37.701 12.921 C 39.457 14.815 39.795 17.508 39.767 19.465 L 40.998 19.465 C 41.029 17.252 40.629 14.193 38.555 11.959 Z " fill="rgb(255,255,255)"/></g></g></g></g></g></svg>